<?xml version="1.0" encoding="UTF-8"?>
<svg version="1.1" xmlns="http://www.w3.org/2000/svg" width="832" height="1248">
<path d="M0 0 C0.67875183 -0.00626404 1.35750366 -0.01252808 2.05682373 -0.01898193 C4.00661396 -0.0304029 5.95650584 -0.0137037 7.90625 0.00390625 C9.03353516 0.01365479 10.16082031 0.02340332 11.32226562 0.03344727 C16.87893725 0.73998472 20.91285235 3.18606575 24.5 7.4375 C25.95320819 11.79712456 26.31697376 15.99642177 24.8515625 20.375 C22.49044296 25.05687807 19.32220287 27.38916653 14.5 29.4375 C9.98388806 30.77340333 5.40834117 31.79031078 0.8125 32.8125 C-1.80657776 33.41781054 -4.42300388 34.03412909 -7.0390625 34.65234375 C-8.31555664 34.95382324 -9.59205078 35.25530273 -10.90722656 35.56591797 C-45.39878897 43.93333288 -77.55830408 58.90198947 -103.5 83.4375 C-104.84912936 84.60998814 -106.2031458 85.77688179 -107.5625 86.9375 C-142.76583831 117.8374242 -163.65338075 165.8185271 -167.25 212.125 C-167.35977423 214.5614524 -167.44170558 216.99927268 -167.5 219.4375 C-167.5306958 220.5207959 -167.5306958 220.5207959 -167.56201172 221.62597656 C-168.53907357 259.98171024 -158.8645533 300.37532255 -135.5 331.4375 C-134.73171875 332.48679687 -133.9634375 333.53609375 -133.171875 334.6171875 C-124.24433912 347.62000853 -124.24433912 347.62000853 -112.5 357.4375 C-112.5 358.0975 -112.5 358.7575 -112.5 359.4375 C-111.69755859 359.77201172 -111.69755859 359.77201172 -110.87890625 360.11328125 C-107.70675729 361.87905875 -105.14347497 364.23433482 -102.4375 366.625 C-96.773614 371.51841342 -90.89681408 375.54378708 -84.5 379.4375 C-66.73376739 390.40757089 -66.73376739 390.40757089 -62.0625 400.5625 C-61.20065831 404.96746863 -61.88920499 408.05517445 -63.6875 412.125 C-66.46485693 415.66852436 -69.23243657 417.14709275 -73.7265625 417.72265625 C-96.90399076 418.56881633 -124.35942816 401.81180247 -140.9375 386.6875 C-141.70964844 385.95660156 -142.48179687 385.22570312 -143.27734375 384.47265625 C-145.98647951 381.99205918 -148.87544833 379.89236825 -151.90625 377.82421875 C-153.75519269 376.21545734 -154.54587958 374.67491239 -155.5 372.4375 C-156.16 372.4375 -156.82 372.4375 -157.5 372.4375 C-173.11593435 358.18739081 -184.75898798 336.40797684 -193.5 317.4375 C-194.28310547 315.75914062 -194.28310547 315.75914062 -195.08203125 314.046875 C-201.04656197 300.26078288 -204.66067557 285.16154563 -207.5 270.4375 C-212.55841732 275.49591732 -210.76586534 294.02294311 -210.8125 300.8125 C-210.57259494 357.17661034 -191.72013102 414.56520046 -154.5 457.4375 C-153.43298565 458.68828358 -152.36662587 459.93962574 -151.30078125 461.19140625 C-150.15969729 462.52415983 -149.01777316 463.85619455 -147.875 465.1875 C-147.34849854 465.80197998 -146.82199707 466.41645996 -146.27954102 467.04956055 C-140.86896333 473.29214613 -135.09681014 479.0688056 -128.82421875 484.4453125 C-127.12453044 485.90218819 -125.44190573 487.37903739 -123.76953125 488.8671875 C-110.86356723 500.23073143 -96.35592921 509.81327143 -81.5 518.4375 C-80.41589844 519.06785156 -79.33179688 519.69820312 -78.21484375 520.34765625 C-43.93605147 539.69258709 -1.65884092 552.98785407 37.8359375 553.74609375 C38.62040253 553.76135605 39.40486755 553.77661835 40.21310425 553.79234314 C70.30540743 554.26663745 99.47060451 550.88723833 127.69921875 539.7890625 C132.35637743 538.02833171 136.56641989 537.68175365 141.5 538.4375 C144.9569073 540.30999145 146.12931689 541.69613377 147.875 545.1875 C149.2261299 552.21337547 147.61940301 557.36397674 143.98828125 563.34765625 C131.89772045 580.32521538 104.47705256 586.50080276 85.16943359 590.01147461 C71.54225718 592.18628921 58.16255522 592.80524467 44.375 592.75 C42.95468475 592.74726578 42.95468475 592.74726578 41.50567627 592.74447632 C27.28995004 592.69845278 13.49454355 592.1019003 -0.5 589.4375 C-1.48983887 589.26057617 -2.47967773 589.08365234 -3.49951172 588.90136719 C-50.67748382 580.44045783 -97.80316342 562.71283177 -135.5 532.4375 C-136.36109375 531.76203125 -137.2221875 531.0865625 -138.109375 530.390625 C-169.50804587 505.40920073 -169.50804587 505.40920073 -180.5 491.4375 C-181.05171875 490.74914062 -181.6034375 490.06078125 -182.171875 489.3515625 C-183.5 487.4375 -183.5 487.4375 -183.5 485.4375 C-184.16 485.4375 -184.82 485.4375 -185.5 485.4375 C-186.65625 484.1796875 -186.65625 484.1796875 -188 482.3125 C-188.52851563 481.58160156 -189.05703125 480.85070312 -189.6015625 480.09765625 C-190.22804687 479.21980469 -190.85453125 478.34195312 -191.5 477.4375 C-192.27085937 476.38433594 -193.04171875 475.33117187 -193.8359375 474.24609375 C-199.45550337 466.53644373 -204.64764051 458.65900788 -209.5 450.4375 C-210.15742188 449.32761719 -210.81484375 448.21773437 -211.4921875 447.07421875 C-219.2834281 433.68965561 -226.17237713 419.99604495 -231.5 405.4375 C-231.74459961 404.77089355 -231.98919922 404.10428711 -232.24121094 403.41748047 C-241.77389918 377.04453609 -248.55592039 348.18688705 -248.703125 320.0390625 C-248.70882507 319.16462494 -248.71452515 318.29018738 -248.72039795 317.38925171 C-248.72978705 315.54548324 -248.73635748 313.70169845 -248.74023438 311.85791016 C-248.74985441 309.10417461 -248.78090098 306.35121465 -248.8125 303.59765625 C-248.88398799 291.58464274 -247.72585386 280.23189458 -245.5 268.4375 C-245.32678223 267.43557617 -245.15356445 266.43365234 -244.97509766 265.40136719 C-240.52158362 239.72698456 -232.56029766 210.54638812 -215.765625 190.0234375 C-208.5543696 181.14917581 -205.60474642 173.21946281 -202.94921875 162.13671875 C-194.35507247 126.68964531 -173.47343656 92.85877402 -148.11230469 67.08056641 C-146.60215525 65.54160431 -145.11507553 63.98373225 -143.6328125 62.41796875 C-137.55338903 56.11827631 -131.09403855 50.78255427 -124.06591797 45.61083984 C-122.62388535 44.53032709 -121.21808978 43.40189567 -119.81640625 42.26953125 C-96.68557326 23.83872238 -67.16932142 11.10400758 -38.5 4.4375 C-37.6646875 4.23157227 -36.829375 4.02564453 -35.96875 3.81347656 C-24.01732649 0.93037783 -12.25478664 0.0539764 0 0 Z " fill="currentColor" transform="translate(410.5,319.5625)"/>
<path d="M0 0 C0.95664551 0.70165283 0.95664551 0.70165283 1.93261719 1.41748047 C3.79692558 2.78818475 5.65108834 4.17111391 7.5 5.5625 C8.05896973 5.98031738 8.61793945 6.39813477 9.19384766 6.82861328 C10.50184702 7.8367319 11.75718493 8.91253681 13 10 C13 10.66 13 11.32 13 12 C13.89513306 12.40943848 13.89513306 12.40943848 14.80834961 12.82714844 C18.29831796 14.69478885 20.79394582 17.45616739 23.5625 20.25 C24.17947754 20.87044189 24.79645508 21.49088379 25.43212891 22.13012695 C31.04016006 27.86913277 36.02612886 33.97225334 40.81103516 40.40527344 C41.89367666 41.85739136 42.99842979 43.29295731 44.10546875 44.7265625 C64.21081327 71.29290596 76.37160754 102.84828177 84 135 C84.25523437 136.0199707 84.25523437 136.0199707 84.515625 137.06054688 C86.9642027 146.94984558 87.54762443 156.99715948 88.1875 167.125 C88.25209412 168.1439888 88.25209412 168.1439888 88.31799316 169.18356323 C92.00394097 229.07840649 78.22768818 291.87623136 38 338 C37.25363281 338.87914062 36.50726562 339.75828125 35.73828125 340.6640625 C31.69298839 345.3557307 31.69298839 345.3557307 30 347 C29.34 347 28.68 347 28 347 C28 347.66 28 348.32 28 349 C27.34 349 26.68 349 26 349 C26 349.66 26 350.32 26 351 C0.30229625 375.35874524 -36.93942083 390.99424335 -72.44140625 391.203125 C-73.23781021 391.21013931 -74.03421417 391.21715363 -74.85475159 391.22438049 C-77.4240588 391.24185176 -79.99313549 391.24823676 -82.5625 391.25 C-83.43992859 391.25067474 -84.31735718 391.25134949 -85.22137451 391.25204468 C-98.69455727 391.23557154 -111.76268504 390.71310695 -125 388 C-125.86641113 387.82839355 -126.73282227 387.65678711 -127.62548828 387.47998047 C-140.56108164 384.85342831 -152.78189013 380.95698094 -165 376 C-165.91040039 375.63777344 -166.82080078 375.27554687 -167.75878906 374.90234375 C-181.82488262 369.2625237 -194.46990221 362.50765163 -207 354 C-208.62615234 352.9171875 -208.62615234 352.9171875 -210.28515625 351.8125 C-213.59109457 349.60536996 -216.83409358 347.40608888 -220 345 C-220 344.34 -220 343.68 -220 343 C-220.57234375 342.73445313 -221.1446875 342.46890625 -221.734375 342.1953125 C-229.20709001 338.25281113 -235.19575981 332.02254126 -241 326 C-241.825 325.195625 -242.65 324.39125 -243.5 323.5625 C-249.8124276 317.09226171 -255.40790298 310.28855258 -260.75 303 C-261.30494141 302.25274658 -261.85988281 301.50549316 -262.43164062 300.7355957 C-267.38118049 293.88509139 -271.91584768 286.75843626 -271.44140625 278.01953125 C-270.64561324 274.37860216 -269.06570094 272.97993186 -266 271 C-260.20900985 270.03483498 -256.46383486 271.1673255 -251.48828125 274.18359375 C-247.31262522 277.2317571 -243.58521253 280.74612328 -239.84375 284.30078125 C-237.58190385 286.44767094 -235.29771315 288.52633251 -232.9375 290.5625 C-229.75545841 293.3154281 -226.65737783 296.14945463 -223.5625 299 C-218.87597046 303.26281591 -214.0982959 307.24210114 -209 311 C-207.93910156 311.78246094 -206.87820313 312.56492187 -205.78515625 313.37109375 C-198.07912296 318.9915839 -190.18295844 324.09448135 -182 329 C-181.18402344 329.52207031 -180.36804688 330.04414062 -179.52734375 330.58203125 C-164.37149399 340.17145873 -147.04611967 345.73118126 -129.6875 349.75 C-128.7804834 349.96092285 -127.8734668 350.1718457 -126.93896484 350.38916016 C-92.786103 357.98214549 -53.68565934 353.6327974 -23.8125 334.75 C13.38657965 310.31706378 34.05962021 270.72669571 43.00390625 228.06640625 C54.17051214 172.3779952 43.64107376 113.51182658 12.60546875 65.859375 C-12.07391743 28.90923256 -50.10457868 2.76149265 -93.65625 -6.2734375 C-124.2946883 -11.84470867 -154.39852265 -6.83410796 -183.44140625 3.1875 C-187.33154982 4.4228433 -189.91076052 4.45435994 -194 4 C-197.63614014 1.50015366 -198.77563041 -0.00903433 -199.75 -4.3125 C-198.28386596 -11.52099235 -192.9593161 -15.580813 -187.0625 -19.5625 C-128.58564279 -54.3795733 -52.20856227 -38.85451635 0 0 Z " fill="currentColor" transform="translate(553,468)"/>
<path d="M0 0 C0.5352832 0.3623877 1.07056641 0.72477539 1.62207031 1.09814453 C23.4411479 15.94741326 43.53768275 33.4883229 59 55 C59.39477539 55.54462891 59.78955078 56.08925781 60.19628906 56.65039062 C65.86809519 64.52089691 71.00945905 72.68586168 76 81 C76.57363281 81.9178125 77.14726563 82.835625 77.73828125 83.78125 C104.44411055 127.49286026 117.28711623 189.04871139 105.3125 239.4375 C102.75559066 248.77785167 99.31305562 259.37452496 91 265 C87.43960246 266.11262423 85.76880215 266.32182416 82.3125 264.875 C78.86790943 262.08208873 77.38706917 259.1612075 76 255 C75.90032659 253.48054801 75.85446273 251.9572393 75.84228516 250.43457031 C75.82689194 249.04470917 75.82689194 249.04470917 75.81118774 247.62677002 C75.80388641 246.62071716 75.79658508 245.61466431 75.7890625 244.578125 C75.7609235 242.41405585 75.7322589 240.24999348 75.703125 238.0859375 C75.66243042 234.70150472 75.62553403 231.31718898 75.59863281 227.93261719 C75.42655197 207.97717295 73.97201476 188.40080038 69.3125 168.9375 C69.05976318 167.86516113 68.80702637 166.79282227 68.54663086 165.68798828 C65.87449765 154.80187661 62.19042264 144.38486931 58 134 C57.71012207 133.27135742 57.42024414 132.54271484 57.12158203 131.79199219 C50.96890223 116.4839237 43.07040175 102.07703249 33 89 C32.10620699 87.770526 31.21582025 86.53857138 30.328125 85.3046875 C23.23055768 75.5128392 15.45982462 66.63419025 7 58 C6.42757568 57.40783691 5.85515137 56.81567383 5.26538086 56.20556641 C1.45688194 52.31506758 -2.49814266 48.81719107 -6.8125 45.5 C-7.42794678 45.02425537 -8.04339355 44.54851074 -8.67749023 44.05834961 C-10.44632641 42.69839943 -12.22217582 41.34816572 -14 40 C-14.78890625 39.39285156 -15.5778125 38.78570312 -16.390625 38.16015625 C-18.87095359 36.33559799 -21.40472553 34.65827927 -24 33 C-24.97694824 32.37254883 -24.97694824 32.37254883 -25.97363281 31.73242188 C-66.13886759 6.34446248 -115.83555326 -3.89215044 -162.63671875 5.7421875 C-184.61579539 10.73545388 -205.43666418 18.81942834 -225 30 C-225.95777344 30.53882813 -226.91554688 31.07765625 -227.90234375 31.6328125 C-249.54482937 44.58575878 -268.00667186 63.93727294 -282.69580078 84.20410156 C-284.46799122 86.64442969 -286.28750018 89.04607612 -288.125 91.4375 C-288.62257813 92.09621094 -289.12015625 92.75492188 -289.6328125 93.43359375 C-292.05243694 96.20579204 -293.8062181 96.97533685 -297.4375 97.4375 C-301 97 -301 97 -303.4375 95.1875 C-306.54631951 88.84550819 -305.59636325 82.20120667 -303.6875 75.5625 C-296.43909975 55.86631698 -283.88294325 38.38852996 -269.38574219 23.43261719 C-268.14249382 22.1473139 -266.91764896 20.84426923 -265.6953125 19.5390625 C-260.188402 13.79009 -254.09400102 8.96862508 -247.70166016 4.26171875 C-246.05006034 3.03711791 -244.42095258 1.7869951 -242.79296875 0.53125 C-174.80689307 -50.98849211 -69.03121426 -47.2368065 0 0 Z " fill="currentColor" transform="translate(576,403)"/>
<path d="M0 0 C3.14044903 0.1078997 3.90563953 0.25964016 6.4375 2.3125 C19.04599118 25.66155775 12.6583352 59.68585771 5.51782227 83.95043945 C-3.38329618 112.89456046 -21.38645332 140.32536403 -45.875 158.4375 C-46.62007812 159.04464844 -47.36515625 159.65179687 -48.1328125 160.27734375 C-63.51212237 172.36815167 -81.83000238 180.3871731 -100.875 184.4375 C-101.68469238 184.61104004 -102.49438477 184.78458008 -103.32861328 184.96337891 C-122.89485632 188.94595827 -143.43827262 189.10710391 -162.875 184.4375 C-164.78925781 183.98503906 -164.78925781 183.98503906 -166.7421875 183.5234375 C-174.45004958 181.51906745 -181.16842095 179.14407905 -186.875 173.4375 C-187.25 170 -187.25 170 -186.875 166.4375 C-184.52718592 163.91022366 -183.130616 163.4621873 -179.67724609 163.12866211 C-178.43023926 163.15710205 -177.18323242 163.18554199 -175.8984375 163.21484375 C-175.22025467 163.22478363 -174.54207184 163.23472351 -173.84333801 163.2449646 C-172.39508374 163.26638686 -170.9469083 163.29384496 -169.49887085 163.32681274 C-165.73261783 163.40751342 -161.96622135 163.42765231 -158.19921875 163.4453125 C-157.46397476 163.44906387 -156.72873077 163.45281525 -155.97120667 163.4566803 C-125.34714332 163.53097848 -94.97430047 153.40621477 -70.875 134.4375 C-69.98425781 133.75042969 -69.09351563 133.06335938 -68.17578125 132.35546875 C-36.46955747 107.25282367 -17.81293675 71.18590552 -11.875 31.4375 C-11.37934673 26.83159021 -10.98536634 22.21762971 -10.73388672 17.59179688 C-10.2261519 10.2375979 -8.41403113 0.94997126 0 0 Z " fill="currentColor" transform="translate(572.875,615.5625)"/>
</svg>
